<?xml version="1.0" standalone="no"?>
<!DOCTYPE svg PUBLIC "-//W3C//DTD SVG 20010904//EN"
 "http://www.w3.org/TR/2001/REC-SVG-20010904/DTD/svg10.dtd">
<svg version="1.0" xmlns="http://www.w3.org/2000/svg"
 width="500.000000pt" height="500.000000pt" viewBox="0 0 500.000000 500.000000"
 preserveAspectRatio="xMidYMid meet">
<metadata>
Created by potrace 1.14, written by Peter Selinger 2001-2017
</metadata>
<g transform="translate(0.000000,500.000000) scale(0.100000,-0.100000)"
fill="#000000" stroke="none">
<path d="M2420 4283 c-13 -9 -40 -26 -61 -37 -108 -59 -671 -400 -677 -410 -3
-6 -7 -103 -8 -216 -1 -113 -2 -206 -3 -207 0 -2 -20 8 -43 21 -24 13 -107 60
-185 104 l-142 79 -205 -131 -206 -131 1 -875 0 -875 200 -130 c111 -71 207
-136 215 -143 8 -7 15 -12 15 -10 1 2 3 404 3 895 1 491 4 895 7 897 3 3 81
-37 174 -88 l170 -94 0 -887 0 -888 395 -263 c217 -145 402 -263 410 -263 8 0
41 17 73 37 31 20 146 93 255 161 108 69 226 143 262 166 36 23 95 61 133 85
l67 43 0 684 c0 577 -2 684 -14 680 -7 -3 -71 -41 -142 -84 -71 -44 -136 -82
-144 -86 -8 -4 -123 -73 -255 -154 l-240 -148 -1 -227 c-1 -204 0 -226 15
-220 9 3 66 30 126 60 125 62 274 132 279 132 2 0 4 -96 4 -213 l1 -214 -219
-110 -219 -111 -185 127 -185 126 -1 668 c0 367 2 667 4 667 2 0 35 -17 73
-38 90 -51 172 -96 261 -144 l73 -40 382 219 c210 120 391 223 402 230 11 7
27 16 35 20 8 4 40 21 70 39 208 119 256 146 265 147 5 1 9 -329 10 -883 1
-744 3 -885 15 -882 10 2 340 221 359 238 2 2 4 400 4 884 0 746 -2 883 -14
895 -8 7 -34 24 -59 38 -25 14 -111 63 -192 110 l-146 85 -249 -145 c-278
-162 -411 -239 -433 -252 -8 -5 -115 -68 -237 -139 l-221 -129 -201 111 -200
111 0 245 -1 245 127 80 c70 44 156 97 190 118 l62 39 58 -27 c32 -16 114 -54
182 -86 68 -33 125 -59 126 -59 2 0 68 -31 147 -69 169 -82 278 -131 288 -131
4 0 6 71 6 157 l-1 156 -245 135 c-135 73 -279 152 -320 174 -151 82 -186 101
-226 124 -38 22 -41 23 -64 7z"/>
</g>
</svg>
